<?xml version="1.0" encoding="UTF-8"?>
<svg version="1.1" xmlns="http://www.w3.org/2000/svg" width="500" height="500">
<path d="M0 0 C165 0 330 0 500 0 C500 165 500 330 500 500 C335 500 170 500 0 500 C0 335 0 170 0 0 Z " fill="#E7E8D2" transform="translate(0,0)"/>
<path d="M0 0 C0.70507187 -0.00095673 1.41014374 -0.00191345 2.13658142 -0.00289917 C3.62694386 -0.00357979 5.11730927 -0.00173371 6.60766602 0.00244141 C8.89671433 0.00779932 11.18556712 0.00248841 13.47460938 -0.00390625 C14.92057335 -0.0032456 16.36653721 -0.00196472 17.8125 0 C18.84528831 -0.00303635 18.84528831 -0.00303635 19.89894104 -0.00613403 C24.72488611 0.01785486 24.72488611 0.01785486 25.83984375 1.1328125 C25.83984375 3.1128125 25.83984375 5.0928125 25.83984375 7.1328125 C9.99984375 7.6278125 9.99984375 7.6278125 -6.16015625 8.1328125 C-6.16015625 9.4528125 -6.16015625 10.7728125 -6.16015625 12.1328125 C-5.07130127 12.14683105 -5.07130127 12.14683105 -3.96044922 12.16113281 C-0.65134411 12.21502531 2.65637613 12.29863689 5.96484375 12.3828125 C7.67800781 12.40408203 7.67800781 12.40408203 9.42578125 12.42578125 C15.76710823 12.61012215 20.07360727 12.74589588 24.83984375 17.1328125 C26.44831557 20.34975614 26.45293524 23.65418472 25.83984375 27.1328125 C23.66409959 29.82386448 21.92918519 31.58814178 18.83984375 33.1328125 C16.43145697 33.21921119 14.05250494 33.24849014 11.64453125 33.23046875 C10.93708771 33.2290538 10.22964417 33.22763885 9.50076294 33.22618103 C7.23874706 33.2205785 4.97682977 33.20802568 2.71484375 33.1953125 C1.1822931 33.19029782 -0.35025911 33.18573486 -1.8828125 33.18164062 C-5.64196513 33.17060827 -9.40104397 33.15334202 -13.16015625 33.1328125 C-13.16015625 30.8228125 -13.16015625 28.5128125 -13.16015625 26.1328125 C2.18484375 25.6378125 2.18484375 25.6378125 17.83984375 25.1328125 C18.16984375 23.4828125 18.49984375 21.8328125 18.83984375 20.1328125 C17.70554932 20.17208862 17.70554932 20.17208862 16.54833984 20.2121582 C13.1040546 20.31644248 9.66010198 20.38124022 6.21484375 20.4453125 C5.02503906 20.48720703 3.83523437 20.52910156 2.609375 20.57226562 C-7.28147138 20.71040594 -7.28147138 20.71040594 -10.93359375 17.73828125 C-13.30063818 14.96842399 -14.0501187 13.93975455 -14.53515625 10.3828125 C-14.01299635 5.8574267 -12.31786247 4.3657022 -9.16015625 1.1328125 C-6.21295016 -0.34079055 -3.22980257 -0.00952346 0 0 Z " fill="#243557" transform="translate(224.16015625,244.8671875)"/>
<path d="M0 0 C11.484375 0 11.484375 0 15.99609375 3.828125 C19.40487585 7.52263347 22.12749719 11.67079013 24.88671875 15.85546875 C29.07959874 22.33240902 29.07959874 22.33240902 35 27 C35 18.09 35 9.18 35 0 C37.31 0 39.62 0 42 0 C42 10.89 42 21.78 42 33 C30.4379085 33 30.4379085 33 26 29 C23.69140625 26.046875 23.69140625 26.046875 21.5625 22.75 C15.78179383 13.14024448 15.78179383 13.14024448 7 7 C7 15.58 7 24.16 7 33 C4.69 33 2.38 33 0 33 C0 22.11 0 11.22 0 0 Z " fill="#293959" transform="translate(148,245)"/>
<path d="M0 0 C11.45579268 0 11.45579268 0 16.83984375 4.671875 C20.09737872 8.18270835 22.60103266 12.06703699 25.14453125 16.11328125 C29.18632923 22.47292867 29.18632923 22.47292867 35 27 C35 18.09 35 9.18 35 0 C36.98 0 38.96 0 41 0 C42 1 42 1 42.11352539 4.05102539 C42.11336634 5.39991271 42.10767612 6.74880614 42.09765625 8.09765625 C42.0962413 8.80651474 42.09482635 9.51537323 42.09336853 10.24571228 C42.08775443 12.51801712 42.07519963 14.79022475 42.0625 17.0625 C42.05748681 18.59960796 42.05292359 20.13671745 42.04882812 21.67382812 C42.03778042 25.44925642 42.02050641 29.22461171 42 33 C37.09457252 33.34900275 33.19549842 33.56814371 28.6875 31.42578125 C25.56179228 28.60446658 23.31972594 25.67775965 21 22.1875 C20.13780163 20.93585376 19.27323559 19.68583502 18.40625 18.4375 C17.99503906 17.84324219 17.58382813 17.24898438 17.16015625 16.63671875 C13.29378188 11.02983707 13.29378188 11.02983707 8 7 C7.67 15.58 7.34 24.16 7 33 C4.69 33 2.38 33 0 33 C0 22.11 0 11.22 0 0 Z " fill="#E37047" transform="translate(364,245)"/>
<path d="M0 0 C4.00171468 -0.09957372 8.00294042 -0.17179608 12.00561523 -0.21972656 C13.36446713 -0.23972628 14.72323424 -0.26693576 16.08178711 -0.30175781 C30.41317734 -0.65964784 30.41317734 -0.65964784 36 4 C39.94795362 8.79567373 39.4913119 13.64063645 39.34765625 19.60546875 C38.86868666 24.28214936 38.03113131 26.4105024 35 30 C30.54106781 32.72178481 27.25986616 33.36185663 22.0703125 33.29296875 C20.78125 33.28330078 19.4921875 33.27363281 18.1640625 33.26367188 C16.81770214 33.23861188 15.47134797 33.21321712 14.125 33.1875 C12.75522295 33.17243504 11.38542998 33.15874982 10.015625 33.14648438 C6.67691255 33.11121629 3.33840508 33.05741206 0 33 C0 26.4 0 19.8 0 13 C1.98 13 3.96 13 6 13 C6 17.29 6 21.58 6 26 C9.79233901 25.88652844 13.58341049 25.75977214 17.375 25.625 C18.45523437 25.5940625 19.53546875 25.563125 20.6484375 25.53125 C21.6796875 25.49257813 22.7109375 25.45390625 23.7734375 25.4140625 C24.72653809 25.3826416 25.67963867 25.3512207 26.66162109 25.31884766 C29.18895176 25.21444204 29.18895176 25.21444204 31 23 C31.32027305 19.94180773 31.32027305 19.94180773 31.25 16.5 C31.25515625 15.3346875 31.2603125 14.169375 31.265625 12.96875 C31.30925773 9.88173935 31.30925773 9.88173935 29 8 C25.99027343 7.62703444 25.99027343 7.62703444 22.4609375 7.5859375 C21.15898437 7.54726562 19.85703125 7.50859375 18.515625 7.46875 C17.13542138 7.43729237 15.75521296 7.40604509 14.375 7.375 C12.98695459 7.33682066 11.59893289 7.29776895 10.2109375 7.2578125 C6.80742815 7.16327057 3.40392835 7.07772103 0 7 C0 4.69 0 2.38 0 0 Z " fill="#E36134" transform="translate(413,245)"/>
<path d="M0 0 C2.97 0 5.94 0 9 0 C9.33 0.99 9.66 1.98 10 3 C10.66 3.33 11.32 3.66 12 4 C12 3.01 12 2.02 12 1 C12.66 1 13.32 1 14 1 C14 3.31 14 5.62 14 8 C14.86278564 7.98428955 15.72557129 7.9685791 16.61450195 7.95239258 C19.81809267 7.90124045 23.02147515 7.8636384 26.2253418 7.83520508 C27.61147919 7.82012603 28.99756894 7.7996595 30.38354492 7.77368164 C32.37658146 7.73726284 34.36996723 7.72186982 36.36328125 7.70703125 C37.56251221 7.6913208 38.76174316 7.67561035 39.99731445 7.65942383 C43 8 43 8 44.88989258 9.32885742 C46.6484308 11.97614006 46.39614441 14.3706274 46.375 17.5 C46.38660156 19.21703125 46.38660156 19.21703125 46.3984375 20.96875 C46 24 46 24 44.80786133 25.67114258 C42.34036426 27.48486122 40.71720704 27.34337912 37.67578125 27.29296875 C36.64775391 27.28330078 35.61972656 27.27363281 34.56054688 27.26367188 C32.95276367 27.2259668 32.95276367 27.2259668 31.3125 27.1875 C30.22904297 27.17396484 29.14558594 27.16042969 28.02929688 27.14648438 C25.35265296 27.11111023 22.67626425 27.05730304 20 27 C20 22.71 20 18.42 20 14 C18.02 14 16.04 14 14 14 C14 20.27 14 26.54 14 33 C13.67 33 13.34 33 13 33 C13 29.37 13 25.74 13 22 C11.68 21.67 10.36 21.34 9 21 C8.67 25.29 8.34 29.58 8 34 C7.67 34 7.34 34 7 34 C6.67 23.44 6.34 12.88 6 2 C3.03 1.505 3.03 1.505 0 1 C0 0.67 0 0.34 0 0 Z " fill="#E9E8CF" transform="translate(399,244)"/>
<path d="M0 0 C2.31 0 4.62 0 7 0 C8.88474003 1.88474003 8.69332 5.02746402 9.0625 7.5625 C9.32740234 9.35880859 9.32740234 9.35880859 9.59765625 11.19140625 C9.73042969 12.11824219 9.86320313 13.04507812 10 14 C10.66 13.01 11.32 12.02 12 11 C12.40992188 11.49371094 12.81984375 11.98742187 13.2421875 12.49609375 C13.78101563 13.13675781 14.31984375 13.77742188 14.875 14.4375 C15.67550781 15.39462891 15.67550781 15.39462891 16.4921875 16.37109375 C18.53730786 18.58045953 19.59825729 18.96844147 22.61376953 19.20532227 C23.69255371 19.24197998 24.77133789 19.2786377 25.8828125 19.31640625 C27.04941406 19.35830078 28.21601563 19.40019531 29.41796875 19.44335938 C30.64128906 19.48267578 31.86460937 19.52199219 33.125 19.5625 C34.35605469 19.60568359 35.58710938 19.64886719 36.85546875 19.69335938 C39.90352853 19.79968704 42.9516719 19.90171781 46 20 C46.625 21.875 46.625 21.875 47 24 C45 26 45 26 41.92724609 26.22705078 C40.63898926 26.21657715 39.35073242 26.20610352 38.0234375 26.1953125 C37.33819 26.1924826 36.6529425 26.18965271 35.94692993 26.18673706 C33.75610973 26.17553281 31.56569684 26.15042859 29.375 26.125 C27.8906309 26.11497048 26.4062554 26.10584458 24.921875 26.09765625 C21.28111739 26.07559294 17.64059844 26.04106176 14 26 C14 28.31 14 30.62 14 33 C23.9 33 33.8 33 44 33 C44 33.33 44 33.66 44 34 C33.77 34 23.54 34 13 34 C12.67 32.68 12.34 31.36 12 30 C8.88214887 30.64644661 8.88214887 30.64644661 8 33 C5.36 33 2.72 33 0 33 C0 22.11 0 11.22 0 0 Z " fill="#E2E3D1" transform="translate(197,245)"/>
<path d="M0 0 C1.34888732 0.00015905 2.69778075 0.00584927 4.04663086 0.01586914 C5.10991859 0.01799156 5.10991859 0.01799156 6.19468689 0.02015686 C8.46699173 0.02577096 10.73919936 0.03832576 13.01147461 0.05102539 C14.54858257 0.05603858 16.08569206 0.0606018 17.62280273 0.06469727 C21.39823103 0.07574497 25.17358632 0.09301898 28.94897461 0.11352539 C28.94897461 2.42352539 28.94897461 4.73352539 28.94897461 7.11352539 C20.36897461 7.11352539 11.78897461 7.11352539 2.94897461 7.11352539 C2.94897461 9.09352539 2.94897461 11.07352539 2.94897461 13.11352539 C4.39518188 13.10567017 4.39518188 13.10567017 5.87060547 13.09765625 C9.43570025 13.07960421 13.00079097 13.06809265 16.56591797 13.05859375 C18.11117227 13.05355399 19.65642177 13.0467222 21.20166016 13.03808594 C23.4182249 13.02600463 25.63472679 13.02029366 27.85131836 13.01586914 C28.54611801 13.01070786 29.24091766 13.00554657 29.95677185 13.00022888 C31.62126791 13.00003262 33.2856296 13.0516341 34.94897461 13.11352539 C35.94897461 14.11352539 35.94897461 14.11352539 35.94897461 20.11352539 C22.74897461 20.11352539 9.54897461 20.11352539 -4.05102539 20.11352539 C-4.05102539 0.15073432 -4.05102539 0.15073432 0 0 Z " fill="#2F3F5D" transform="translate(107.051025390625,257.886474609375)"/>
<path d="M0 0 C3.87623429 2.62016968 5.94423044 5.13116542 8.04296875 9.28125 C8.55923828 10.28800781 9.07550781 11.29476562 9.60742188 12.33203125 C10.12884766 13.37746094 10.65027344 14.42289062 11.1875 15.5 C11.98704102 17.06814453 11.98704102 17.06814453 12.80273438 18.66796875 C14.21343486 21.43968466 15.61066485 24.21752852 17 27 C17.57681519 28.06057617 17.57681519 28.06057617 18.1652832 29.14257812 C19 31 19 31 19 34 C16.69 34 14.38 34 12 34 C11.62713867 33.21761963 11.25427734 32.43523926 10.87011719 31.62915039 C9.47986242 28.72933439 8.07709096 25.83602896 6.66552734 22.9465332 C6.05724261 21.69476433 5.45400778 20.44052836 4.85595703 19.18383789 C3.99542635 17.37786513 3.11514973 15.58134291 2.234375 13.78515625 C1.71069336 12.70113525 1.18701172 11.61711426 0.64746094 10.50024414 C-0.75211361 7.85272777 -0.75211361 7.85272777 -3.20214844 7.13842773 C-4.09208496 7.06990601 -4.09208496 7.06990601 -5 7 C-5.21398437 7.76570312 -5.42796875 8.53140625 -5.6484375 9.3203125 C-7.52158642 14.42004164 -10.06954877 19.08839337 -12.625 23.875 C-13.3984375 25.33679688 -13.3984375 25.33679688 -14.1875 26.828125 C-15.45428286 29.22093706 -16.72521318 31.61144536 -18 34 C-20.31 34 -22.62 34 -25 34 C-23.52229448 29.14468187 -21.53603587 24.75945542 -19.25 20.25 C-18.71983276 19.19981689 -18.71983276 19.19981689 -18.17895508 18.12841797 C-8.4200498 -1.01040598 -8.4200498 -1.01040598 0 0 Z " fill="#E06033" transform="translate(340,244)"/>
<path d="M0 0 C12.87 0 25.74 0 39 0 C39 2.31 39 4.62 39 7 C33.72 7 28.44 7 23 7 C23 15.58 23 24.16 23 33 C20.69 33 18.38 33 16 33 C16 24.42 16 15.84 16 7 C10.72 7 5.44 7 0 7 C0 4.69 0 2.38 0 0 Z " fill="#374662" transform="translate(60,245)"/>
<path d="M0 0 C1.99954746 -0.04254356 4.00041636 -0.04080783 6 0 C7.67855968 1.67855968 7.20795564 3.79043568 7.28125 6.09375 C7.33732422 7.63869141 7.33732422 7.63869141 7.39453125 9.21484375 C7.46484375 11.40494792 7.53515625 13.59505208 7.60546875 15.78515625 C7.66154297 17.33009766 7.66154297 17.33009766 7.71875 18.90625 C7.74904297 19.85822266 7.77933594 20.81019531 7.81054688 21.79101562 C7.75885402 23.97355315 7.75885402 23.97355315 9 25 C10.92478813 25.15806531 12.8549921 25.251135 14.78515625 25.31640625 C15.95498047 25.35830078 17.12480469 25.40019531 18.33007812 25.44335938 C20.17762695 25.50233398 20.17762695 25.50233398 22.0625 25.5625 C23.29806641 25.60568359 24.53363281 25.64886719 25.80664062 25.69335938 C28.87097335 25.79984198 31.93539073 25.90185424 35 26 C35 28.31 35 30.62 35 33 C30.43783535 33.14532035 25.87626638 33.23408477 21.3125 33.3125 C19.37213867 33.3753418 19.37213867 33.3753418 17.39257812 33.43945312 C15.52182617 33.46362305 15.52182617 33.46362305 13.61328125 33.48828125 C12.46641846 33.51446533 11.31955566 33.54064941 10.13793945 33.56762695 C6.02955037 32.82445379 4.63176345 31.16166041 2 28 C-0.29755922 24.55366118 -0.23643976 23.28931609 -0.1953125 19.23828125 C-0.18886719 18.12001953 -0.18242187 17.00175781 -0.17578125 15.84960938 C-0.15902344 14.68236328 -0.14226562 13.51511719 -0.125 12.3125 C-0.11597656 11.13365234 -0.10695313 9.95480469 -0.09765625 8.74023438 C-0.07406423 5.82661974 -0.0411454 2.91341108 0 0 Z " fill="#E35D2F" transform="translate(278,245)"/>
<path d="M0 0 C0.70507187 -0.00095673 1.41014374 -0.00191345 2.13658142 -0.00289917 C3.62694386 -0.00357979 5.11730927 -0.00173371 6.60766602 0.00244141 C8.89671433 0.00779932 11.18556712 0.00248841 13.47460938 -0.00390625 C14.92057335 -0.0032456 16.36653721 -0.00196472 17.8125 0 C18.84528831 -0.00303635 18.84528831 -0.00303635 19.89894104 -0.00613403 C24.72488611 0.01785486 24.72488611 0.01785486 25.83984375 1.1328125 C25.83984375 3.1128125 25.83984375 5.0928125 25.83984375 7.1328125 C9.99984375 7.6278125 9.99984375 7.6278125 -6.16015625 8.1328125 C-6.16015625 9.7828125 -6.16015625 11.4328125 -6.16015625 13.1328125 C-8.66015625 15.4453125 -8.66015625 15.4453125 -11.16015625 17.1328125 C-13.2834674 14.83255876 -14.11851695 13.37223845 -14.66015625 10.2578125 C-13.96184503 5.8933674 -12.23292588 4.27874332 -9.16015625 1.1328125 C-6.21295016 -0.34079055 -3.22980257 -0.00952346 0 0 Z " fill="#2C3D5B" transform="translate(224.16015625,244.8671875)"/>
<path d="M0 0 C1.60279192 0.00015914 3.20558896 0.00585476 4.80834961 0.01586914 C5.65038437 0.01728409 6.49241913 0.01869904 7.35997009 0.02015686 C10.06024671 0.02577276 12.76044163 0.03832791 15.46069336 0.05102539 C17.28686404 0.05603834 19.11303602 0.06060161 20.93920898 0.06469727 C25.42556878 0.07574735 29.9118672 0.0930226 34.39819336 0.11352539 C34.39819336 2.42352539 34.39819336 4.73352539 34.39819336 7.11352539 C21.52819336 7.11352539 8.65819336 7.11352539 -4.60180664 7.11352539 C-4.60180664 0.1450444 -4.60180664 0.1450444 0 0 Z " fill="#3C4B60" transform="translate(107.601806640625,244.886474609375)"/>
<path d="M0 0 C2.97 0 5.94 0 9 0 C9.33 0.99 9.66 1.98 10 3 C10.66 3.33 11.32 3.66 12 4 C12 3.01 12 2.02 12 1 C12.66 1 13.32 1 14 1 C14 3.31 14 5.62 14 8 C14.86278564 7.98428955 15.72557129 7.9685791 16.61450195 7.95239258 C19.81809267 7.90124045 23.02147515 7.8636384 26.2253418 7.83520508 C27.61147919 7.82012603 28.99756894 7.7996595 30.38354492 7.77368164 C32.37658146 7.73726284 34.36996723 7.72186982 36.36328125 7.70703125 C37.56251221 7.6913208 38.76174316 7.67561035 39.99731445 7.65942383 C43 8 43 8 44.91479492 9.33081055 C46 11 46 11 46 14 C45.34 14 44.68 14 44 14 C44 13.01 44 12.02 44 11 C40.95236066 9.98412022 38.65281033 9.80195594 35.45703125 9.68359375 C34.38388672 9.64169922 33.31074219 9.59980469 32.20507812 9.55664062 C31.08552734 9.51732422 29.96597656 9.47800781 28.8125 9.4375 C27.68134766 9.39431641 26.55019531 9.35113281 25.38476562 9.30664062 C22.58996646 9.20050901 19.79507838 9.09845615 17 9 C17 10.32 17 11.64 17 13 C18.32 12.67 19.64 12.34 21 12 C21 16.62 21 21.24 21 26 C28.26 26 35.52 26 43 26 C43 26.33 43 26.66 43 27 C35.41 27 27.82 27 20 27 C20 22.71 20 18.42 20 14 C18.02 14 16.04 14 14 14 C14 20.27 14 26.54 14 33 C13.67 33 13.34 33 13 33 C13 29.37 13 25.74 13 22 C11.68 21.67 10.36 21.34 9 21 C8.67 25.29 8.34 29.58 8 34 C7.67 34 7.34 34 7 34 C6.67 23.44 6.34 12.88 6 2 C3.03 1.505 3.03 1.505 0 1 C0 0.67 0 0.34 0 0 Z " fill="#F2DBBE" transform="translate(399,244)"/>
<path d="M0 0 C2.31 0 4.62 0 7 0 C7 10.89 7 21.78 7 33 C4.69 33 2.38 33 0 33 C0 22.11 0 11.22 0 0 Z " fill="#2C3C5A" transform="translate(197,245)"/>
<path d="M0 0 C0 1.98 0 3.96 0 6 C0.66 6 1.32 6 2 6 C2.33 5.01 2.66 4.02 3 3 C8.41139241 1.67721519 8.41139241 1.67721519 10.9375 3.0625 C12.51345523 5.93630072 11.80501033 7.91412709 11 11 C10 12 10 12 7.0625 12.1875 C4 12 4 12 2 10 C1.484375 10.33 0.96875 10.66 0.4375 11 C-2.87219404 12.3578232 -5.45640517 12.32214498 -9 12 C-10.9375 10.9375 -10.9375 10.9375 -12 9 C-12.75 3 -12.75 3 -10.5 0 C-6.74070554 -1.50371778 -3.95620649 -0.72530452 0 0 Z " fill="#E4E5CD" transform="translate(163,294)"/>
<path d="M0 0 C2.97 0 5.94 0 9 0 C7.515 1.485 7.515 1.485 6 3 C5.58456042 6.10093739 5.58456042 6.10093739 5.70703125 9.63671875 C5.7215332 11.58481445 5.7215332 11.58481445 5.73632812 13.57226562 C5.76139415 14.94401639 5.78678899 16.31576118 5.8125 17.6875 C5.8275498 19.07094924 5.8412377 20.45441401 5.85351562 21.83789062 C5.88892777 25.22565207 5.93831946 28.61263139 6 32 C4.02 32 2.04 32 0 32 C0 21.44 0 10.88 0 0 Z " fill="#1D2E52" transform="translate(148,246)"/>
<path d="M0 0 C1.32 0 2.64 0 4 0 C4 9.57 4 19.14 4 29 C-5 29 -5 29 -8.0625 26.75 C-10 24 -10 24 -10 20 C-6.66135596 20.57562828 -5.30897368 21.59063616 -3 24 C-2.01 24.33 -1.02 24.66 0 25 C0 16.75 0 8.5 0 0 Z " fill="#E65626" transform="translate(400,247)"/>
<path d="M0 0 C9.9 0 19.8 0 30 0 C30 1.65 30 3.3 30 5 C21.09 5 12.18 5 3 5 C3 6.65 3 8.3 3 10 C2.01 10.33 1.02 10.66 0 11 C0 7.37 0 3.74 0 0 Z " fill="#192B53" transform="translate(105,259)"/>
<path d="M0 0 C2.97 0.495 2.97 0.495 6 1 C5.67 10.9 5.34 20.8 5 31 C3.35 31 1.7 31 0 31 C0 20.77 0 10.54 0 0 Z " fill="#E55526" transform="translate(365,246)"/>
<path d="M0 0 C3.18390579 2.9071377 5.09463004 5.68577789 7.015625 9.53515625 C7.54414063 10.59154297 8.07265625 11.64792969 8.6171875 12.73632812 C9.15601563 13.83396484 9.69484375 14.93160156 10.25 16.0625 C10.80429687 17.16400391 11.35859375 18.26550781 11.9296875 19.40039062 C16 27.60618073 16 27.60618073 16 31 C13.69 31 11.38 31 9 31 C5.04 22.585 5.04 22.585 1 14 C1.66 14 2.32 14 3 14 C3 14.66 3 15.32 3 16 C3.66 16 4.32 16 5 16 C4.71125 15.13375 4.4225 14.2675 4.125 13.375 C3.75375 12.26125 3.3825 11.1475 3 10 C2.649375 8.96875 2.29875 7.9375 1.9375 6.875 C1.19240647 4.5900465 0.53991769 2.33964333 0 0 Z " fill="#E0633A" transform="translate(343,247)"/>
<path d="M0 0 C1.32 0 2.64 0 4 0 C4 0.66 4 1.32 4 2 C3.01 2.66 2.02 3.32 1 4 C0.26656572 7.06556598 0.26656572 7.06556598 0 10 C-0.78375 10.144375 -1.5675 10.28875 -2.375 10.4375 C-4.96421018 10.87798925 -4.96421018 10.87798925 -7 12 C-7 11.34 -7 10.68 -7 10 C-7.94875 10.04125 -8.8975 10.0825 -9.875 10.125 C-13 10 -13 10 -15 8 C-15.3125 5 -15.3125 5 -15 2 C-9.94788155 -1.36807896 -5.80211245 -1.13519591 0 0 Z " fill="#47505B" transform="translate(214,296)"/>
<path d="M0 0 C2.71329897 0.86031431 4.40863329 1.97772465 6.5625 3.8125 C6.5625 2.8225 6.5625 1.8325 6.5625 0.8125 C8.5425 0.4825 10.5225 0.1525 12.5625 -0.1875 C12.8925 0.4725 13.2225 1.1325 13.5625 1.8125 C11.9125 1.8125 10.2625 1.8125 8.5625 1.8125 C8.5625 2.4725 8.5625 3.1325 8.5625 3.8125 C10.2125 4.1425 11.8625 4.4725 13.5625 4.8125 C13.2325 6.4625 12.9025 8.1125 12.5625 9.8125 C9.89583333 9.8125 7.22916667 9.8125 4.5625 9.8125 C3.634375 9.84730469 3.634375 9.84730469 2.6875 9.8828125 C1.98625 9.90085937 1.285 9.91890625 0.5625 9.9375 C-0.13875 9.96070313 -0.84 9.98390625 -1.5625 10.0078125 C-3.4375 9.8125 -3.4375 9.8125 -5.4375 7.8125 C-5.75 4.8125 -5.75 4.8125 -5.4375 1.8125 C-2.4375 -0.1875 -2.4375 -0.1875 0 0 Z " fill="#969C9B" transform="translate(347.4375,296.1875)"/>
<path d="M0 0 C1.5 1 1.5 1 3 3 C3.61444989 7.76198668 3.63474474 9.8891967 1.25 14.0625 C-3.75686886 17.04736413 -8.40911976 15.90060431 -14 15 C-13.67 13.68 -13.34 12.36 -13 11 C-20.59 11 -28.18 11 -36 11 C-36 10.67 -36 10.34 -36 10 C-20.655 9.505 -20.655 9.505 -5 9 C-4.67 7.35 -4.34 5.7 -4 4 C-3.01 3.67 -2.02 3.34 -1 3 C-0.67 2.01 -0.34 1.02 0 0 Z " fill="#2C3D5C" transform="translate(247,261)"/>
<path d="M0 0 C2.29160319 -0.02692484 4.58329546 -0.04636124 6.875 -0.0625 C8.15117187 -0.07410156 9.42734375 -0.08570313 10.7421875 -0.09765625 C14 0 14 0 16 1 C16 3.97 16 6.94 16 10 C15.34 9.67 14.68 9.34 14 9 C14 8.01 14 7.02 14 6 C12.68 6 11.36 6 10 6 C10 6.99 10 7.98 10 9 C10.99 9.33 11.98 9.66 13 10 C10.1875 10.625 10.1875 10.625 7 11 C6.01 10.34 5.02 9.68 4 9 C3.67 9.66 3.34 10.32 3 11 C2.34 11 1.68 11 1 11 C0.67 11.66 0.34 12.32 0 13 C0 8.71 0 4.42 0 0 Z " fill="#DADED2" transform="translate(260,296)"/>
<path d="M0 0 C4.05671683 -0.07431978 8.11316846 -0.12868133 12.17041016 -0.16479492 C13.54971218 -0.17985422 14.92896653 -0.20030613 16.30810547 -0.22631836 C18.29373403 -0.26282415 20.27971618 -0.27814853 22.265625 -0.29296875 C23.45961914 -0.3086792 24.65361328 -0.32438965 25.88378906 -0.34057617 C29.23493371 0.02567632 30.57585392 0.7253954 33 3 C32.34 3.33 31.68 3.66 31 4 C30.34 3.67 29.68 3.34 29 3 C26.9692523 2.84588894 24.93393579 2.75017547 22.8984375 2.68359375 C21.68671875 2.64169922 20.475 2.59980469 19.2265625 2.55664062 C17.95554687 2.51732422 16.68453125 2.47800781 15.375 2.4375 C13.456875 2.37272461 13.456875 2.37272461 11.5 2.30664062 C8.33344652 2.20030114 5.16681247 2.09827167 2 2 C2 2.99 2 3.98 2 5 C10.91 5 19.82 5 29 5 C29 5.66 29 6.32 29 7 C19.43 7 9.86 7 0 7 C0 4.69 0 2.38 0 0 Z " fill="#DA6F47" transform="translate(413,245)"/>
<path d="M0 0 C1.65 0 3.3 0 5 0 C5.33 3.96 5.66 7.92 6 12 C11.28 12.33 16.56 12.66 22 13 C22 13.33 22 13.66 22 14 C16.72 14 11.44 14 6 14 C6.33 14.66 6.66 15.32 7 16 C10.27555608 16.47001033 10.27555608 16.47001033 14.0625 16.625 C15.35285156 16.69976562 16.64320313 16.77453125 17.97265625 16.8515625 C19.47119141 16.92503906 19.47119141 16.92503906 21 17 C21 17.33 21 17.66 21 18 C14.07 18 7.14 18 0 18 C0 12.06 0 6.12 0 0 Z " fill="#DF5822" transform="translate(414,259)"/>
<path d="M0 0 C1.65 0.33 3.3 0.66 5 1 C6.80078125 3.94140625 6.80078125 3.94140625 8.3125 7.5625 C8.82425781 8.76003906 9.33601563 9.95757812 9.86328125 11.19140625 C10.23839844 12.11824219 10.61351562 13.04507812 11 14 C10.01 14.495 10.01 14.495 9 15 C8.67 14.34 8.34 13.68 8 13 C6.68 13.33 5.36 13.66 4 14 C3.34 12.35 2.68 10.7 2 9 C1.34 10.65 0.68 12.3 0 14 C-2.97 13.505 -2.97 13.505 -6 13 C-4.02 8.71 -2.04 4.42 0 0 Z " fill="#ECDFC5" transform="translate(335,251)"/>
<path d="M0 0 C0.99 0 1.98 0 3 0 C3 0.66 3 1.32 3 2 C2.34 2 1.68 2 1 2 C1 2.66 1 3.32 1 4 C1.66 4 2.32 4 3 4 C3 4.66 3 5.32 3 6 C2.34 6 1.68 6 1 6 C1 8.97 1 11.94 1 15 C-2.19902639 15.08886184 -4.92677456 14.91058531 -8 14 C-8.33 11.69 -8.66 9.38 -9 7 C-10.32 7.33 -11.64 7.66 -13 8 C-13.33 9.98 -13.66 11.96 -14 14 C-14.33 14 -14.66 14 -15 14 C-15 10.7 -15 7.4 -15 4 C-10.33333333 4 -5.66666667 4 -1 4 C-0.67 2.68 -0.34 1.36 0 0 Z " fill="#CCD1C1" transform="translate(194,292)"/>
<path d="M0 0 C0.66 0 1.32 0 2 0 C2 0.66 2 1.32 2 2 C2.99 2 3.98 2 5 2 C5 2.66 5 3.32 5 4 C4.01 4 3.02 4 2 4 C2 5.98 2 7.96 2 10 C2.66 10 3.32 10 4 10 C4 8.35 4 6.7 4 5 C4.99 5 5.98 5 7 5 C7 4.01 7 3.02 7 2 C7.99 2 8.98 2 10 2 C10 4.64 10 7.28 10 10 C11.65 10 13.3 10 15 10 C15 7.36 15 4.72 15 2 C15.66 2 16.32 2 17 2 C17 5.3 17 8.6 17 12 C14.35491639 12.36082877 11.70920453 12.71395352 9.0625 13.0625 C8.30775391 13.16626953 7.55300781 13.27003906 6.77539062 13.37695312 C4.85525872 13.62665638 2.92771856 13.81790281 1 14 C-0.72488307 12.27511693 -0.41081633 9.91546061 -0.625 7.5625 C-0.76808594 6.07943359 -0.76808594 6.07943359 -0.9140625 4.56640625 C-1 2 -1 2 0 0 Z " fill="#DADDCF" transform="translate(286,294)"/>
<path d="M0 0 C1.98 0 3.96 0 6 0 C7 1 7 1 7.11352539 4.05102539 C7.11336634 5.39991271 7.10767612 6.74880614 7.09765625 8.09765625 C7.0962413 8.80651474 7.09482635 9.51537323 7.09336853 10.24571228 C7.08775443 12.51801712 7.07519963 14.79022475 7.0625 17.0625 C7.05748681 18.59960796 7.05292359 20.13671745 7.04882812 21.67382812 C7.03778042 25.44925642 7.02050641 29.22461171 7 33 C3.7 33 0.4 33 -3 33 C-3 32.34 -3 31.68 -3 31 C-0.36 31 2.28 31 5 31 C5 21.43 5 11.86 5 2 C3.68 2 2.36 2 1 2 C1 10.25 1 18.5 1 27 C0.67 27 0.34 27 0 27 C0 18.09 0 9.18 0 0 Z " fill="#DE7148" transform="translate(399,245)"/>
<path d="M0 0 C5.82067461 -0.64409104 9.84237633 -0.65125033 14.625 3 C15.76974668 3.97733313 16.90247489 4.96992057 18 6 C17.01 7.98 16.02 9.96 15 12 C14.236875 11.360625 13.47375 10.72125 12.6875 10.0625 C10.11753287 7.85767219 10.11753287 7.85767219 7 7 C7 15.58 7 24.16 7 33 C6.67 33 6.34 33 6 33 C5.67 22.77 5.34 12.54 5 2 C3.35 1.67 1.7 1.34 0 1 C0 0.67 0 0.34 0 0 Z " fill="#46556E" transform="translate(148,245)"/>
<path d="M0 0 C1.98 0 3.96 0 6 0 C6 0.33 6 0.66 6 1 C4.35 1 2.7 1 1 1 C1 6.94 1 12.88 1 19 C4.465 18.505 4.465 18.505 8 18 C8 17.67 8 17.34 8 17 C10.41674224 16.97294692 12.8331794 16.95313562 15.25 16.9375 C15.93191406 16.92912109 16.61382812 16.92074219 17.31640625 16.91210938 C20.69342554 16.89571608 23.77291639 16.94371232 27 18 C27 17.01 27 16.02 27 15 C30.6441774 12.5705484 32.71241272 12.83820425 37 13 C35.96594265 15.99876631 35.09925198 16.93944953 32.34716797 18.6184082 C28.63276053 20.15158338 26.07171435 20.3460847 22.0703125 20.29296875 C20.78125 20.28330078 19.4921875 20.27363281 18.1640625 20.26367188 C16.81770214 20.23861188 15.47134797 20.21321712 14.125 20.1875 C12.75522295 20.17243504 11.38542998 20.15874982 10.015625 20.14648438 C6.67691255 20.11121629 3.33840508 20.05741206 0 20 C0 13.4 0 6.8 0 0 Z " fill="#DF683B" transform="translate(413,258)"/>
<path d="M0 0 C11.88 0 23.76 0 36 0 C36 0.99 36 1.98 36 3 C24.12 3 12.24 3 0 3 C0 2.01 0 1.02 0 0 Z " fill="#182C58" transform="translate(105,247)"/>
<path d="M0 0 C4.3958194 -0.02907584 8.79161399 -0.0468244 13.1875 -0.0625 C14.43337891 -0.07087891 15.67925781 -0.07925781 16.96289062 -0.08789062 C18.16494141 -0.09111328 19.36699219 -0.09433594 20.60546875 -0.09765625 C22.26292114 -0.10551147 22.26292114 -0.10551147 23.95385742 -0.11352539 C26.75799379 -0.00901923 29.27417329 0.35902041 32 1 C32.495 2.98 32.495 2.98 33 5 C29.25 6.125 29.25 6.125 27 5 C27 4.34 27 3.68 27 3 C18.09 3 9.18 3 0 3 C0 2.01 0 1.02 0 0 Z " fill="#E85423" transform="translate(415,247)"/>
<path d="M0 0 C7 0 7 0 8.9375 1.1875 C10.36405327 3.62103204 10.35571424 5.22542896 10 8 C8 10 8 10 4.875 10.125 C3.92625 10.08375 2.9775 10.0425 2 10 C2 11.32 2 12.64 2 14 C1.34 14 0.68 14 0 14 C0 9.38 0 4.76 0 0 Z " fill="#394350" transform="translate(235,296)"/>
<path d="M0 0 C0.33 0 0.66 0 1 0 C1 8.58 1 17.16 1 26 C-0.32 26 -1.64 26 -3 26 C-3 19.07 -3 12.14 -3 5 C-2.34 4.67 -1.68 4.34 -1 4 C-0.34786708 1.97536745 -0.34786708 1.97536745 0 0 Z " fill="#182B54" transform="translate(81,251)"/>
<path d="M0 0 C2.87628285 0 5.22184257 0.28765194 8 1 C8.66 1.66 9.32 2.32 10 3 C9.43181818 8.56818182 9.43181818 8.56818182 8 10 C5.66055264 9.71269945 3.3260857 9.38063221 1 9 C1 10.65 1 12.3 1 14 C0.67 14 0.34 14 0 14 C0 9.38 0 4.76 0 0 Z " fill="#394251" transform="translate(323,296)"/>
<path d="M0 0 C1.32 0.33 2.64 0.66 4 1 C4 1.66 4 2.32 4 3 C4.66 3 5.32 3 6 3 C6.33 2.01 6.66 1.02 7 0 C8.00578589 1.28716647 9.00446798 2.57988658 10 3.875 C10.556875 4.59429687 11.11375 5.31359375 11.6875 6.0546875 C13 8 13 8 13 10 C12.34 10 11.68 10 11 10 C12.20842856 14.43090471 13.51668565 16.98112756 17 20 C11.30774888 18.66064679 9.09170099 14.57168818 6 10 C5.43410156 9.17757813 4.86820312 8.35515625 4.28515625 7.5078125 C0 1.19602941 0 1.19602941 0 0 Z " fill="#DD6236" transform="translate(379,257)"/>
<path d="M0 0 C2.4375 0.75 2.4375 0.75 4.4375 2.75 C3.86931818 8.31818182 3.86931818 8.31818182 2.4375 9.75 C-0.5 9.9375 -0.5 9.9375 -3.5625 9.75 C-5.5625 7.75 -5.5625 7.75 -5.875 4.75 C-5.771875 3.76 -5.66875 2.77 -5.5625 1.75 C-2.5625 -0.25 -2.5625 -0.25 0 0 Z " fill="#4A525D" transform="translate(170.5625,296.25)"/>
<path d="M0 0 C0.5497272 5.63470383 -1.04952165 8.38987758 -4 13 C-6.31 13 -8.62 13 -11 13 C-10.39816251 10.97954558 -9.72693904 8.97888961 -9 7 C-8.34 6.67 -7.68 6.34 -7 6 C-6.67 5.01 -6.34 4.02 -6 3 C-1.55555556 0 -1.55555556 0 0 0 Z " fill="#E5592A" transform="translate(326,265)"/>
<path d="M0 0 C1.32 0 2.64 0 4 0 C4 0.66 4 1.32 4 2 C3.01 2.66 2.02 3.32 1 4 C0.26656572 7.06556598 0.26656572 7.06556598 0 10 C-1.175625 10.2165625 -1.175625 10.2165625 -2.375 10.4375 C-4.96421018 10.87798925 -4.96421018 10.87798925 -7 12 C-7.33 11.01 -7.66 10.02 -8 9 C-7.34 9 -6.68 9 -6 9 C-5.76571687 4.2102679 -5.76571687 4.2102679 -8 0 C-5.13303368 -1.43348316 -3.10697549 -0.55925559 0 0 Z " fill="#A4ACA4" transform="translate(214,296)"/>
<path d="M0 0 C8.58 0 17.16 0 26 0 C26 2.31 26 4.62 26 7 C21.41687916 7.11605098 16.83413551 7.18720362 12.25 7.25 C10.94804687 7.28351563 9.64609375 7.31703125 8.3046875 7.3515625 C7.05429687 7.36445313 5.80390625 7.37734375 4.515625 7.390625 C3.36352539 7.41157227 2.21142578 7.43251953 1.02441406 7.45410156 C-2.60024715 6.90987571 -3.73818439 5.80542794 -6 3 C-5.10152344 3.31710937 -4.20304687 3.63421875 -3.27734375 3.9609375 C2.18781783 5.52241224 7.79127847 5.46415808 13.4375 5.625 C15.1071582 5.68300781 15.1071582 5.68300781 16.81054688 5.7421875 C19.54020476 5.83590966 22.26986563 5.92162294 25 6 C25 4.35 25 2.7 25 1 C16.75 1 8.5 1 0 1 C0 0.67 0 0.34 0 0 Z " fill="#D5784F" transform="translate(287,271)"/>
<path d="M0 0 C1.98 0 3.96 0 6 0 C6 0.99 6 1.98 6 3 C4.02 3.33 2.04 3.66 0 4 C-0.33 5.32 -0.66 6.64 -1 8 C-1.66 8 -2.32 8 -3 8 C-3 9.32 -3 10.64 -3 12 C-3.99 12 -4.98 12 -6 12 C-6 13.98 -6 15.96 -6 18 C-6.66 18 -7.32 18 -8 18 C-9.46726798 14.18510326 -8.43336419 11.70988378 -7 8 C-6.34 8 -5.68 8 -5 8 C-5 7.01 -5 6.02 -5 5 C-4.34 5 -3.68 5 -3 5 C-3 4.01 -3 3.02 -3 2 C-2.01 2 -1.02 2 0 2 C0 1.34 0 0.68 0 0 Z " fill="#E75522" transform="translate(334,246)"/>
<path d="M0 0 C1.65 0 3.3 0 5 0 C4.67 11.88 4.34 23.76 4 36 C3.67 36 3.34 36 3 36 C2.67 27.42 2.34 18.84 2 10 C0.68 10 -0.64 10 -2 10 C-2.125 7.125 -2.125 7.125 -2 4 C-1.34 3.34 -0.68 2.68 0 2 C0 1.34 0 0.68 0 0 Z " fill="#CCD1C5" transform="translate(144,242)"/>
<path d="M0 0 C0.763125 0.20625 1.52625 0.4125 2.3125 0.625 C2.6425 2.275 2.9725 3.925 3.3125 5.625 C1.0025 5.625 -1.3075 5.625 -3.6875 5.625 C-3.6875 6.285 -3.6875 6.945 -3.6875 7.625 C-1.3775 7.625 0.9325 7.625 3.3125 7.625 C2.9825 8.285 2.6525 8.945 2.3125 9.625 C-0.5625 9.75 -0.5625 9.75 -3.6875 9.625 C-5.6875 7.625 -5.6875 7.625 -6 4.625 C-5.896875 3.635 -5.79375 2.645 -5.6875 1.625 C-2.6875 -0.375 -2.6875 -0.375 0 0 Z " fill="#464E58" transform="translate(347.6875,296.375)"/>
<path d="M0 0 C12.54 0 25.08 0 38 0 C38 1.65 38 3.3 38 5 C32.72 5 27.44 5 22 5 C22 4.67 22 4.34 22 4 C22.92683594 3.95101562 23.85367188 3.90203125 24.80859375 3.8515625 C26.00613281 3.77679688 27.20367187 3.70203125 28.4375 3.625 C29.63246094 3.55539063 30.82742187 3.48578125 32.05859375 3.4140625 C33.02925781 3.27742187 33.99992187 3.14078125 35 3 C35.33 2.34 35.66 1.68 36 1 C35.24460938 1.0721875 34.48921875 1.144375 33.7109375 1.21875 C22.47137106 2.16634811 11.27131164 2.09951579 0 2 C0 1.34 0 0.68 0 0 Z " fill="#1A2B4A" transform="translate(61,246)"/>
<path d="M0 0 C2.37590142 3.70416126 2.20500286 6.92984573 2.125 11.25 C2.10695313 12.51328125 2.08890625 13.7765625 2.0703125 15.078125 C2.04710937 16.04234375 2.02390625 17.0065625 2 18 C1.01 18 0.02 18 -1 18 C-1.09087891 16.93458984 -1.09087891 16.93458984 -1.18359375 15.84765625 C-1.26738281 14.92855469 -1.35117187 14.00945312 -1.4375 13.0625 C-1.51871094 12.14597656 -1.59992188 11.22945313 -1.68359375 10.28515625 C-1.76044976 8.03840268 -1.76044976 8.03840268 -3 7 C-3.25 4.5625 -3.25 4.5625 -3 2 C-2.01 1.34 -1.02 0.68 0 0 Z " fill="#969A99" transform="translate(337,288)"/>
<path d="M0 0 C0 0.66 0 1.32 0 2 C-1.134375 1.979375 -2.26875 1.95875 -3.4375 1.9375 C-6.81575674 1.58422523 -6.81575674 1.58422523 -8 3 C-8.04080783 4.99958364 -8.04254356 7.00045254 -8 9 C-5.36 9 -2.72 9 0 9 C-0.33 9.99 -0.66 10.98 -1 12 C-7.34507042 12.35915493 -7.34507042 12.35915493 -9.9375 10.9375 C-11.63335287 7.84506242 -11.43060657 5.44485259 -11 2 C-7.86386149 -2.0142573 -4.61083486 -0.97536891 0 0 Z " fill="#4C545E" transform="translate(162,294)"/>
<path d="M0 0 C0.99 0 1.98 0 3 0 C2.32829194 3.8063457 1.27253436 7.35206816 0 11 C-2.97 10.505 -2.97 10.505 -6 10 C-4.68 7.36 -3.36 4.72 -2 2 C-1.34 2 -0.68 2 0 2 C0 1.34 0 0.68 0 0 Z " fill="#EDE2CB" transform="translate(335,254)"/>
<path d="M0 0 C3.19805068 4.79707602 3.72957768 8.28168842 3 14 C1.1875 17.0625 1.1875 17.0625 -1 19 C-1.99 19 -2.98 19 -4 19 C-2.125 14.25 -2.125 14.25 -1 12 C-0.77141886 9.9625237 -0.58975722 7.91959697 -0.4375 5.875 C-0.35371094 4.77929688 -0.26992188 3.68359375 -0.18359375 2.5546875 C-0.12300781 1.71164062 -0.06242187 0.86859375 0 0 Z " fill="#F2DFC6" transform="translate(452,256)"/>
<path d="M0 0 C1.32 0.33 2.64 0.66 4 1 C4 1.99 4 2.98 4 4 C5.32 4 6.64 4 8 4 C8.33 4 8.66 4 9 4 C9 6.97 9 9.94 9 13 C8.01 13.33 7.02 13.66 6 14 C4.02 9.38 2.04 4.76 0 0 Z " fill="#EDDFC9" transform="translate(353,264)"/>
<path d="M0 0 C1.99954746 -0.04254356 4.00041636 -0.04080783 6 0 C7 1 7 1 7.09765625 3.06640625 C7.08605469 3.89011719 7.07445312 4.71382813 7.0625 5.5625 C7.05347656 6.38878906 7.04445313 7.21507812 7.03515625 8.06640625 C7.02355469 8.70449219 7.01195312 9.34257812 7 10 C6.34 9.67 5.68 9.34 5 9 C5 8.01 5 7.02 5 6 C3.68 6 2.36 6 1 6 C1 6.99 1 7.98 1 9 C1.99 9.33 2.98 9.66 4 10 C2.35 9.67 0.7 9.34 -1 9 C-0.67 7.35 -0.34 5.7 0 4 C1.65 4 3.3 4 5 4 C5 3.34 5 2.68 5 2 C3.35 2 1.7 2 0 2 C0 1.34 0 0.68 0 0 Z " fill="#474D5C" transform="translate(249,296)"/>
<path d="M0 0 C0.66 0 1.32 0 2 0 C2 2.64 2 5.28 2 8 C3.65 8 5.3 8 7 8 C7 5.36 7 2.72 7 0 C7.66 0 8.32 0 9 0 C9 3.3 9 6.6 9 10 C2.84765625 10.09765625 2.84765625 10.09765625 1 10 C0 9 0 9 -0.09765625 6.93359375 C-0.08605469 6.10988281 -0.07445312 5.28617187 -0.0625 4.4375 C-0.05347656 3.61121094 -0.04445313 2.78492188 -0.03515625 1.93359375 C-0.02355469 1.29550781 -0.01195312 0.65742188 0 0 Z " fill="#4C5461" transform="translate(294,296)"/>
<path d="M0 0 C2.97 0.495 2.97 0.495 6 1 C6 3.97 6 6.94 6 10 C5.34 9.67 4.68 9.34 4 9 C4 8.01 4 7.02 4 6 C2.68 6 1.36 6 0 6 C0 6.99 0 7.98 0 9 C0.99 9.33 1.98 9.66 3 10 C1.35 9.67 -0.3 9.34 -2 9 C-1.67 7.35 -1.34 5.7 -1 4 C0.65 4 2.3 4 4 4 C4 3.34 4 2.68 4 2 C2.35 2 0.7 2 -1 2 C-0.67 1.34 -0.34 0.68 0 0 Z " fill="#444C5A" transform="translate(270,296)"/>
<path d="M0 0 C4.29 0.99 8.58 1.98 13 3 C13 3.66 13 4.32 13 5 C11.35 5.33 9.7 5.66 8 6 C7.67 7.32 7.34 8.64 7 10 C6.01 10 5.02 10 4 10 C3.566875 8.3603125 3.566875 8.3603125 3.125 6.6875 C2.18106796 2.95986155 2.18106796 2.95986155 0 0 Z " fill="#D5DBD0" transform="translate(241,295)"/>
<path d="M0 0 C0.99 0 1.98 0 3 0 C3.103125 0.639375 3.20625 1.27875 3.3125 1.9375 C3.539375 2.618125 3.76625 3.29875 4 4 C4.99 4.33 5.98 4.66 7 5 C7.33 6.65 7.66 8.3 8 10 C5.69 10 3.38 10 1 10 C1.020625 9.0925 1.04125 8.185 1.0625 7.25 C1.0110245 4.57327412 0.7784983 2.53011948 0 0 Z " fill="#E85421" transform="translate(351,268)"/>
<path d="M0 0 C0.66 0 1.32 0 2 0 C2.625 1.875 2.625 1.875 3 4 C1 6 1 6 -2.07275391 6.22705078 C-3.36101074 6.21657715 -4.64926758 6.20610352 -5.9765625 6.1953125 C-6.66181 6.1924826 -7.3470575 6.18965271 -8.05307007 6.18673706 C-10.24389027 6.17553281 -12.43430316 6.15042859 -14.625 6.125 C-16.1093691 6.11497048 -17.5937446 6.10584458 -19.078125 6.09765625 C-22.71888261 6.07559294 -26.35940156 6.04106176 -30 6 C-30 5.67 -30 5.34 -30 5 C-20.1 5 -10.2 5 0 5 C0 3.35 0 1.7 0 0 Z " fill="#D8DFD6" transform="translate(241,265)"/>
<path d="M0 0 C2 2 2 2 2.23046875 5.1875 C2.20919922 7.0746875 2.20919922 7.0746875 2.1875 9 C2.18105469 10.258125 2.17460937 11.51625 2.16796875 12.8125 C2 16 2 16 1 18 C0.01 17.67 -0.98 17.34 -2 17 C-1.34 11.39 -0.68 5.78 0 0 Z " fill="#DE6434" transform="translate(450,252)"/>
<path d="M0 0 C1.98 0 3.96 0 6 0 C6 0.66 6 1.32 6 2 C5.01 2.495 5.01 2.495 4 3 C3.53476937 4.89533342 3.53476937 4.89533342 3.375 7.0625 C3.25125 8.361875 3.1275 9.66125 3 11 C2.34 11 1.68 11 1 11 C0.67 11.66 0.34 12.32 0 13 C0 8.71 0 4.42 0 0 Z " fill="#ACB3B0" transform="translate(260,296)"/>
<path d="M0 0 C0.33 0.99 0.66 1.98 1 3 C-2.13349732 4.04449911 -2.98968256 3.93423645 -6 3 C-6 4.98 -6 6.96 -6 9 C-4.68 9.33 -3.36 9.66 -2 10 C-3.99954746 10.04254356 -6.00041636 10.04080783 -8 10 C-9 9 -9 9 -9.1875 6.0625 C-9 3 -9 3 -7 1 C-3.375 1.375 -3.375 1.375 0 2 C0 1.34 0 0.68 0 0 Z " fill="#D8DED6" transform="translate(162,294)"/>
<path d="M0 0 C2.85449645 0 5.23253333 0.34454737 8 1 C9 2 9 2 9.09765625 3.84765625 C9.04882812 6.92382812 9.04882812 6.92382812 9 10 C8.34 10 7.68 10 7 10 C6.67 7.69 6.34 5.38 6 3 C4.68 3.33 3.36 3.66 2 4 C1.67 5.98 1.34 7.96 1 10 C0.67 10 0.34 10 0 10 C0 6.7 0 3.4 0 0 Z " fill="#444B5E" transform="translate(179,296)"/>
<path d="M0 0 C0.99 0 1.98 0 3 0 C3 0.66 3 1.32 3 2 C2.34 2 1.68 2 1 2 C1 2.66 1 3.32 1 4 C1.66 4 2.32 4 3 4 C3 4.66 3 5.32 3 6 C2.01 6 1.02 6 0 6 C0 8.64 0 11.28 0 14 C-0.66 14 -1.32 14 -2 14 C-2.33 10.7 -2.66 7.4 -3 4 C-2.34 4 -1.68 4 -1 4 C-0.67 2.68 -0.34 1.36 0 0 Z " fill="#4D5568" transform="translate(194,292)"/>
<path d="M0 0 C1.65 0 3.3 0 5 0 C5.33 0.66 5.66 1.32 6 2 C4.35 2 2.7 2 1 2 C1 2.66 1 3.32 1 4 C3.475 4.99 3.475 4.99 6 6 C5.67 7.32 5.34 8.64 5 10 C3.02 10 1.04 10 -1 10 C-1 9.34 -1 8.68 -1 8 C1.475 8.495 1.475 8.495 4 9 C4 8.01 4 7.02 4 6 C2.35 5.67 0.7 5.34 -1 5 C-0.67 3.35 -0.34 1.7 0 0 Z " fill="#484E56" transform="translate(308,296)"/>
<path d="M0 0 C0.66 0 1.32 0 2 0 C2 0.66 2 1.32 2 2 C2.99 2 3.98 2 5 2 C5 2.66 5 3.32 5 4 C4.01 4 3.02 4 2 4 C2 5.98 2 7.96 2 10 C2.99 10 3.98 10 5 10 C5 10.66 5 11.32 5 12 C3.35 11.67 1.7 11.34 0 11 C-0.19491452 9.54263913 -0.38069358 8.08405407 -0.5625 6.625 C-0.66691406 5.81289063 -0.77132813 5.00078125 -0.87890625 4.1640625 C-1 2 -1 2 0 0 Z " fill="#4F5963" transform="translate(286,294)"/>
<path d="M0 0 C1.67542976 0.28604898 3.34385343 0.61781233 5 1 C4.67 2.65 4.34 4.3 4 6 C2.0625 6.5625 2.0625 6.5625 0 7 C-1 6 -1 6 -1.125 3.5 C-1 1 -1 1 0 0 Z " fill="#D2D8CD" transform="translate(238,298)"/>
<path d="M0 0 C2.625 0.375 2.625 0.375 5 1 C4.67 2.65 4.34 4.3 4 6 C2.35 6 0.7 6 -1 6 C-1.625 4.125 -1.625 4.125 -2 2 C-1.34 1.34 -0.68 0.68 0 0 Z " fill="#D3D9CB" transform="translate(326,298)"/>
<path d="M0 0 C1.67542976 0.28604898 3.34385343 0.61781233 5 1 C4.67 2.65 4.34 4.3 4 6 C2.0625 6.5625 2.0625 6.5625 0 7 C-1 6 -1 6 -1.125 3.5 C-1 1 -1 1 0 0 Z " fill="#D6DAD1" transform="translate(202,298)"/>
<path d="M0 0 C0.66 0 1.32 0 2 0 C2 0.66 2 1.32 2 2 C2.99 2 3.98 2 5 2 C5 2.66 5 3.32 5 4 C4.01 4 3.02 4 2 4 C2 6.31 2 8.62 2 11 C2.99 11.33 3.98 11.66 5 12 C3.35 11.67 1.7 11.34 0 11 C-0.19491452 9.54263913 -0.38069358 8.08405407 -0.5625 6.625 C-0.66691406 5.81289063 -0.77132812 5.00078125 -0.87890625 4.1640625 C-1 2 -1 2 0 0 Z " fill="#424B58" transform="translate(221,294)"/>
<path d="M0 0 C0.99 0 1.98 0 3 0 C2.67 5.28 2.34 10.56 2 16 C1.34 16 0.68 16 0 16 C0 10.72 0 5.44 0 0 Z " fill="#EA522A" transform="translate(416,260)"/>
<path d="M0 0 C0.33 0 0.66 0 1 0 C1 2.97 1 5.94 1 9 C-0.98 9.33 -2.96 9.66 -5 10 C-6 7 -6 7 -6 4 C-4.68 4 -3.36 4 -2 4 C-1.67 4.99 -1.34 5.98 -1 7 C-0.67 4.69 -0.34 2.38 0 0 Z " fill="#B8C0BC" transform="translate(276,298)"/>
<path d="M0 0 C1.67542976 0.28604898 3.34385343 0.61781233 5 1 C4.67 2.65 4.34 4.3 4 6 C2.35 6 0.7 6 -1 6 C-1.042721 4.33388095 -1.04063832 2.66617115 -1 1 C-0.67 0.67 -0.34 0.34 0 0 Z " fill="#D9E0D3" transform="translate(168,298)"/>
<path d="M0 0 C2.97 0.33 5.94 0.66 9 1 C8.67 2.32 8.34 3.64 8 5 C4.65626525 4.44271087 1.96687001 3.64826111 -1 2 C-0.67 1.34 -0.34 0.68 0 0 Z " fill="#162B57" transform="translate(238,260)"/>
<path d="M0 0 C0.886875 0.103125 1.77375 0.20625 2.6875 0.3125 C3.0175 0.9725 3.3475 1.6325 3.6875 2.3125 C1.3775 2.3125 -0.9325 2.3125 -3.3125 2.3125 C-3.3125 2.9725 -3.3125 3.6325 -3.3125 4.3125 C-4.3025 4.3125 -5.2925 4.3125 -6.3125 4.3125 C-6.3125 5.3025 -6.3125 6.2925 -6.3125 7.3125 C-6.9725 7.3125 -7.6325 7.3125 -8.3125 7.3125 C-8.3125 8.3025 -8.3125 9.2925 -8.3125 10.3125 C-8.9725 10.3125 -9.6325 10.3125 -10.3125 10.3125 C-8.60190472 4.86969683 -5.99830401 0.56587774 0 0 Z " fill="#D9724E" transform="translate(337.3125,243.6875)"/>
<path d="M0 0 C0.598125 0.20625 1.19625 0.4125 1.8125 0.625 C2.1425 1.945 2.4725 3.265 2.8125 4.625 C0.5025 4.625 -1.8075 4.625 -4.1875 4.625 C-4.5175 3.635 -4.8475 2.645 -5.1875 1.625 C-2.1875 -0.375 -2.1875 -0.375 0 0 Z " fill="#828C91" transform="translate(347.1875,296.375)"/>
<path d="M0 0 C0.66 0 1.32 0 2 0 C4 3 4 3 4 6 C3.34 6 2.68 6 2 6 C2 6.66 2 7.32 2 8 C0.68 7.34 -0.64 6.68 -2 6 C-1.34 4.02 -0.68 2.04 0 0 Z " fill="#233554" transform="translate(165,252)"/>
<path d="M0 0 C3.3125 -0.25 3.3125 -0.25 7 0 C8.9375 2 8.9375 2 10 4 C8.68 4 7.36 4 6 4 C6.33 5.32 6.66 6.64 7 8 C4.5 6.75 4.5 6.75 2 5 C2 3.68 2 2.36 2 1 C1.34 0.67 0.68 0.34 0 0 Z " fill="#DD613B" transform="translate(369,246)"/>
<path d="M0 0 C0.33 0 0.66 0 1 0 C1 2.97 1 5.94 1 9 C-1.31 9 -3.62 9 -6 9 C-6 7.35 -6 5.7 -6 4 C-4.68 4 -3.36 4 -2 4 C-1.67 4.99 -1.34 5.98 -1 7 C-0.67 4.69 -0.34 2.38 0 0 Z " fill="#B5BCBD" transform="translate(256,298)"/>
<path d="M0 0 C0.99 0 1.98 0 3 0 C1.68938409 4.23429756 0.05643741 8.07407404 -2 12 C-3.125 10.25 -3.125 10.25 -4 8 C-3.07451225 5.30066074 -2.57626463 4.28813232 0 3 C0 2.01 0 1.02 0 0 Z " fill="#EEDDBE" transform="translate(320,260)"/>
<path d="M0 0 C2.18092036 2.07858979 3.96390469 4.21856618 5.6875 6.6875 C6.12449219 7.31011719 6.56148438 7.93273437 7.01171875 8.57421875 C7.33785156 9.04472656 7.66398437 9.51523437 8 10 C7.01 10.495 7.01 10.495 6 11 C6 10.34 6 9.68 6 9 C5.401875 8.938125 4.80375 8.87625 4.1875 8.8125 C2 8 2 8 0.1875 5.625 C-1 3 -1 3 0 0 Z " fill="#EED3B3" transform="translate(383,264)"/>
<path d="M0 0 C1.5 1.25 1.5 1.25 3 3 C3 4.32 3 5.64 3 7 C1.68 7.33 0.36 7.66 -1 8 C-1 7.01 -1 6.02 -1 5 C-1.99 5.33 -2.98 5.66 -4 6 C-4 5.34 -4 4.68 -4 4 C-3.01 3.67 -2.02 3.34 -1 3 C-0.67 2.01 -0.34 1.02 0 0 Z " fill="#2A395D" transform="translate(247,261)"/>
<path d="M0 0 C2 1 4 2 6 3 C6.40729228 5.32156597 6.74438677 7.6568787 7 10 C4.4000702 7.48972295 2.00908773 5.0136316 0 2 C0 1.34 0 0.68 0 0 Z " fill="#D7DBD3" transform="translate(171,258)"/>
<path d="M0 0 C6.28388747 -0.48337596 6.28388747 -0.48337596 9.5 1.6875 C11 4 11 4 10.875 6.6875 C10 9 10 9 8 10 C8.04125 9.05125 8.0825 8.1025 8.125 7.125 C8.34973818 3.89755144 8.34973818 3.89755144 6 2 C2.91652174 1.83318891 2.91652174 1.83318891 0 2 C0 1.34 0 0.68 0 0 Z " fill="#D3D9D0" transform="translate(166,295)"/>
<path d="M0 0 C0.66 0 1.32 0 2 0 C2.69965443 1.26418246 3.38434763 2.53665402 4.0625 3.8125 C4.63677734 4.87404297 4.63677734 4.87404297 5.22265625 5.95703125 C6 8 6 8 5 11 C0 4.63636364 0 4.63636364 0 0 Z " fill="#E45A31" transform="translate(339,249)"/>
<path d="M0 0 C1.32 0.33 2.64 0.66 4 1 C4 1.99 4 2.98 4 4 C4.66 4 5.32 4 6 4 C5.67 5.65 5.34 7.3 5 9 C2.67527795 6.14693203 1.2491742 3.45925163 0 0 Z " fill="#EEDEBA" transform="translate(353,264)"/>
<path d="M0 0 C0.33 0.99 0.66 1.98 1 3 C2.65 3.33 4.3 3.66 6 4 C6 4.99 6 5.98 6 7 C4.35 6.67 2.7 6.34 1 6 C0.67 6.66 0.34 7.32 0 8 C0 5.36 0 2.72 0 0 Z " fill="#CAD1C8" transform="translate(306,298)"/>
<path d="M0 0 C1.38609004 3.15020465 0.89180331 4.31918022 -0.25 7.6875 C-2 11 -2 11 -5 12 C-3.41037341 7.96479403 -1.71767682 3.98188718 0 0 Z " fill="#ECD0AD" transform="translate(327,266)"/>
<path d="M0 0 C1.65 0 3.3 0 5 0 C4.67 1.32 4.34 2.64 4 4 C2.68 4.33 1.36 4.66 0 5 C-0.33 4.01 -0.66 3.02 -1 2 C-0.67 1.34 -0.34 0.68 0 0 Z " fill="#26355D" transform="translate(176,271)"/>
<path d="M0 0 C0.66 0.33 1.32 0.66 2 1 C2.99 0.67 3.98 0.34 5 0 C5.66 0.66 6.32 1.32 7 2 C6.67 2.66 6.34 3.32 6 4 C3.69 4 1.38 4 -1 4 C-0.67 2.68 -0.34 1.36 0 0 Z " fill="#D9673E" transform="translate(316,274)"/>
<path d="M0 0 C0 0.99 0 1.98 0 3 C-0.84304688 2.97679687 -1.68609375 2.95359375 -2.5546875 2.9296875 C-3.65039062 2.91164062 -4.74609375 2.89359375 -5.875 2.875 C-6.96554687 2.85179687 -8.05609375 2.82859375 -9.1796875 2.8046875 C-12.1371051 2.69939466 -12.1371051 2.69939466 -14 5 C-13.67 3.68 -13.34 2.36 -13 1 C-11.39602723 0.83147753 -9.7918131 0.66525114 -8.1875 0.5 C-7.29417969 0.4071875 -6.40085937 0.314375 -5.48046875 0.21875 C-3 0 -3 0 0 0 Z " fill="#F1E2C5" transform="translate(376,243)"/>
<path d="M0 0 C0.33 0 0.66 0 1 0 C1.125 2.375 1.125 2.375 1 5 C-1 7 -1 7 -4.125 7.125 C-5.548125 7.063125 -5.548125 7.063125 -7 7 C-7.33 8.32 -7.66 9.64 -8 11 C-8 9.35 -8 7.7 -8 6 C-5.36 5.34 -2.72 4.68 0 4 C0 2.68 0 1.36 0 0 Z " fill="#5D646E" transform="translate(244,299)"/>
<path d="M0 0 C0.99 0 1.98 0 3 0 C2.38722388 2.96175123 1.74627478 4.38058783 0 7 C-0.99 7 -1.98 7 -3 7 C-1.125 2.25 -1.125 2.25 0 0 Z " fill="#EED0B2" transform="translate(451,268)"/>
<path d="M0 0 C0.185625 1.2065625 0.185625 1.2065625 0.375 2.4375 C0.58125 3.283125 0.7875 4.12875 1 5 C1.66 5.33 2.32 5.66 3 6 C2.67 7.32 2.34 8.64 2 10 C1.16094435 8.87926138 0.32892169 7.75325453 -0.5 6.625 C-0.9640625 5.99851562 -1.428125 5.37203125 -1.90625 4.7265625 C-3 3 -3 3 -3 1 C-1 0 -1 0 0 0 Z " fill="#F1DABD" transform="translate(391,258)"/>
<path d="M0 0 C0.99 0.99 1.98 1.98 3 3 C1.515 5.475 1.515 5.475 0 8 C-1.65 6.35 -3.3 4.7 -5 3 C-2.525 3.495 -2.525 3.495 0 4 C0 2.68 0 1.36 0 0 Z " fill="#394860" transform="translate(163,249)"/>
<path d="M0 0 C2 2 2 2 2 5 C-0.31 5 -2.62 5 -5 5 C-5 4.34 -5 3.68 -5 3 C-4.360625 2.87625 -3.72125 2.7525 -3.0625 2.625 C-2.0415625 2.315625 -2.0415625 2.315625 -1 2 C-0.67 1.34 -0.34 0.68 0 0 Z " fill="#D56B3F" transform="translate(357,273)"/>
<path d="M0 0 C0.99 0.33 1.98 0.66 3 1 C3 3.31 3 5.62 3 8 C2.01 8 1.02 8 0 8 C0 5.36 0 2.72 0 0 Z " fill="#E1EBD0" transform="translate(410,251)"/>
<path d="M0 0 C0.99 0 1.98 0 3 0 C3 4.62 3 9.24 3 14 C2.67 14 2.34 14 2 14 C1.93941406 13.24074219 1.87882812 12.48148437 1.81640625 11.69921875 C1.73261719 10.70535156 1.64882813 9.71148437 1.5625 8.6875 C1.48128906 7.70136719 1.40007812 6.71523438 1.31640625 5.69921875 C1.08187441 2.90624401 1.08187441 2.90624401 0 0 Z " fill="#9CA3A0" transform="translate(336,292)"/>
<path d="M0 0 C1.65 0 3.3 0 5 0 C5 0.66 5 1.32 5 2 C4.01 2.66 3.02 3.32 2 4 C1.26656572 7.06556598 1.26656572 7.06556598 1 10 C0.67 10 0.34 10 0 10 C0 6.7 0 3.4 0 0 Z " fill="#3D4557" transform="translate(261,296)"/>
<path d="M0 0 C0.99 0.33 1.98 0.66 3 1 C2.34 3.97 1.68 6.94 1 10 C0.67 10 0.34 10 0 10 C-0.19412181 8.52168779 -0.38012131 7.04230684 -0.5625 5.5625 C-0.66691406 4.73878906 -0.77132812 3.91507812 -0.87890625 3.06640625 C-0.91886719 2.38449219 -0.95882812 1.70257813 -1 1 C-0.67 0.67 -0.34 0.34 0 0 Z " fill="#D8DDC8" transform="translate(188,296)"/>
<path d="M0 0 C0.99 0.99 1.98 1.98 3 3 C2.9375 5.5625 2.9375 5.5625 2 8 C0.02 8.99 0.02 8.99 -2 10 C-1.34 6.7 -0.68 3.4 0 0 Z " fill="#D1DAC9" transform="translate(250,265)"/>
<path d="M0 0 C2.125 0.9375 2.125 0.9375 4 2 C4 2.66 4 3.32 4 4 C3.34 4 2.68 4 2 4 C1.67 4.66 1.34 5.32 1 6 C0.01 4.35 -0.98 2.7 -2 1 C-1.34 0.67 -0.68 0.34 0 0 Z " fill="#F1E0C7" transform="translate(383,249)"/>
<path d="M0 0 C0.625 1.8125 0.625 1.8125 1 4 C0.01 5.485 0.01 5.485 -1 7 C-3.625 7.1875 -3.625 7.1875 -6 7 C-6 6.34 -6 5.68 -6 5 C-5.195625 4.731875 -4.39125 4.46375 -3.5625 4.1875 C-2.716875 3.795625 -1.87125 3.40375 -1 3 C-0.67 2.01 -0.34 1.02 0 0 Z " fill="#555A64" transform="translate(332,299)"/>
<path d="M0 0 C2.0625 0.4375 2.0625 0.4375 4 1 C4 3.31 4 5.62 4 8 C3.34 7.34 2.68 6.68 2 6 C2 4.68 2 3.36 2 2 C1.01 1.67 0.02 1.34 -1 1 C-0.67 0.67 -0.34 0.34 0 0 Z " fill="#DBE4D6" transform="translate(182,298)"/>
<path d="M0 0 C1.32 0 2.64 0 4 0 C3.34 1.98 2.68 3.96 2 6 C1.34 6 0.68 6 0 6 C0 4.02 0 2.04 0 0 Z " fill="#F2D0B6" transform="translate(313,272)"/>
<path d="M0 0 C1.65 0.33 3.3 0.66 5 1 C5 1.66 5 2.32 5 3 C3.35 3 1.7 3 0 3 C0 3.66 0 4.32 0 5 C-0.66 4.67 -1.32 4.34 -2 4 C-1.34 2.68 -0.68 1.36 0 0 Z " fill="#EFD0AD" transform="translate(335,251)"/>
<path d="M0 0 C-1.32 1.32 -2.64 2.64 -4 4 C-4.66 2.68 -5.32 1.36 -6 0 C-3.50907189 -1.24546405 -2.58919267 -0.7767578 0 0 Z " fill="#DC5E2E" transform="translate(450,272)"/>
</svg>
